<svg xmlns="http://www.w3.org/2000/svg" viewBox="0 0 360 500" role="img" aria-label="Abstract chess knight emblem"><defs><linearGradient id="g" x1="0" y1="0" x2="1" y2="1"><stop stop-color="#121416"/><stop offset=".55" stop-color="#33383c"/><stop offset="1" stop-color="#090a0b"/></linearGradient><linearGradient id="gold" x1="0" y1="0" x2="1" y2="1"><stop stop-color="#ead7a9"/><stop offset=".5" stop-color="#b89452"/><stop offset="1" stop-color="#6e5123"/></linearGradient></defs><path d="M112 390c13-88 6-139 42-194 19-29 56-47 88-74-40 3-68-11-92-39 50-7 96 7 123 41 27 34 30 78 10 113-12 21-33 35-52 48 26 29 43 64 48 105z" fill="url(#g)" stroke="url(#gold)" stroke-width="8"/><path d="M151 82c-9 37-1 67 23 91 24-14 45-33 62-57-33-3-61-14-85-34z" fill="url(#gold)"/><circle cx="232" cy="161" r="7" fill="#e6cb8b"/><path d="M168 287c26 14 59 17 86 8" fill="none" stroke="#b89452" stroke-width="7"/><path d="M91 390h204l24 49H69z" fill="url(#g)" stroke="url(#gold)" stroke-width="7"/><path d="M55 439h278v35H55z" fill="url(#gold)"/><circle cx="194" cy="447" r="24" fill="#171a1d" stroke="#f0d99f" stroke-width="3"/><text x="194" y="456" text-anchor="middle" font-family="Georgia" font-size="27" fill="#d7b66e">R</text></svg>
